<svg id="4d1b19f4-2889-485f-9a49-bb106aeec703" data-name="Layer 1" xmlns="http://www.w3.org/2000/svg" xmlns:xlink="http://www.w3.org/1999/xlink" width="32" height="32" viewBox="0 0 32 32"><defs><clipPath id="92774966-9db3-4de0-955e-8313b71d8b65"><path d="M20.09,15.93335H17.415v9.73291H13.449V15.93335H11.563v-3.436h1.886V10.27124A3.76127,3.76127,0,0,1,17.451,6.1897l2.936,0.01172V9.53931H18.255a0.8143,0.8143,0,0,0-.84.93506v2.02295h3.023ZM16,0.24048A15.60869,15.60869,0,0,0,.549,16.00024,15.608,15.608,0,0,0,16,31.75952,15.608,15.608,0,0,0,31.451,16.00024,15.60869,15.60869,0,0,0,16,.24048Z" style="fill:none;clip-rule:evenodd"/></clipPath><clipPath id="b5fa9493-be5e-4436-8fd8-89e7cfb4ba66"><rect x="-74.451" y="-328.75952" width="1024" height="5192" style="fill:none"/></clipPath></defs><title>fb</title><g style="clip-path:url(#92774966-9db3-4de0-955e-8313b71d8b65)"><g style="clip-path:url(#b5fa9493-be5e-4436-8fd8-89e7cfb4ba66)"><rect x="-4.451" y="-4.75952" width="40.902" height="41.51904" style="fill:#303030"/></g></g></svg>