<svg id="637cbb17-a366-4772-8750-dd2ab690a051" data-name="Layer 1" xmlns="http://www.w3.org/2000/svg" xmlns:xlink="http://www.w3.org/1999/xlink" width="32" height="32" viewBox="0 0 32 32"><defs><clipPath id="53dd95ee-9f9e-482e-90c5-dc7436241568"><path d="M31.5155,16.00146a15.5155,15.5155,0,1,0-15.513,15.51416A15.51669,15.51669,0,0,0,31.5155,16.00146Zm-6.412,7a2.09929,2.09929,0,0,1-2.099,2.10205H8.9985a2.10185,2.10185,0,0,1-2.102-2.10205V8.99756a2.1031,2.1031,0,0,1,2.102-2.10205h14.006a2.10054,2.10054,0,0,1,2.099,2.10205V23.00146Zm-2.099-.69922V14.59863h-1.586a5.601,5.601,0,1,1-10.834,0H8.9985v7.70361a0.69867,0.69867,0,0,0,.7.69922h12.605A0.69952,0.69952,0,0,0,23.00449,22.30225Zm0-10.50488V9.69531a0.69921,0.69921,0,0,0-.701-0.69775h-2.101a0.69814,0.69814,0,0,0-.699.69775v2.10205a0.69888,0.69888,0,0,0,.699.70117h2.101A0.69994,0.69994,0,0,0,23.00449,11.79736Zm-3.501,4.20312a3.5025,3.5025,0,1,0-3.501,3.501A3.50121,3.50121,0,0,0,19.5035,16.00049Z" style="fill:none;clip-rule:evenodd"/></clipPath><clipPath id="6e97fe8f-b2da-4f4e-aecc-c6da0b93f30d"><rect x="-195.0465" y="-329.33154" width="1024" height="5192" style="fill:none"/></clipPath></defs><title>in</title><g style="clip-path:url(#53dd95ee-9f9e-482e-90c5-dc7436241568)"><g style="clip-path:url(#6e97fe8f-b2da-4f4e-aecc-c6da0b93f30d)"><rect x="-4.5151" y="-4.51563" width="41.03" height="41.03125" style="fill:#303030"/></g></g></svg>