<svg id="1ac29872-ccaf-47dc-a4a9-4b94ba2f9f56" data-name="Layer 1" xmlns="http://www.w3.org/2000/svg" xmlns:xlink="http://www.w3.org/1999/xlink" width="32" height="32" viewBox="0 0 32 32"><defs><clipPath id="9f83b686-77d5-4fa9-84a9-941cdefb7169"><path d="M25.05551,23.47a0.22892,0.22892,0,0,1-.002.02881l-0.026-.01172-5.436-2.71729,5.464-8.87891V23.47Zm-9.662-9.23926L19.2505,7.99l5.661,2.83008-5.809,9.438Zm-2.244,3.32129V11.88989l5.032,8.17822Zm-0.685,5.92285a0.2354,0.2354,0,0,1-.001.02783l-0.027-.01074L7.0135,20.78a0.3583,0.3583,0,0,1-.16-0.2583V8.08667l5.611,2.80518v12.583Zm3.535-23.14795a15.6731,15.6731,0,1,0,15.674,15.67188A15.67214,15.67214,0,0,0,15.99951.3269Z" style="fill:none;clip-rule:evenodd"/></clipPath><clipPath id="be294146-76c5-4cab-8cd2-0ad749ac3498"><rect x="-234.67349" y="-328.6731" width="1024" height="5192" style="fill:none"/></clipPath></defs><title>md</title><g style="clip-path:url(#9f83b686-77d5-4fa9-84a9-941cdefb7169)"><g style="clip-path:url(#be294146-76c5-4cab-8cd2-0ad749ac3498)"><rect x="-4.67349" y="-4.6731" width="41.34698" height="41.34619" style="fill:#303030"/></g></g></svg>