<svg id="33a6377b-1c93-461c-a8b7-9843e93e0414" data-name="Layer 1" xmlns="http://www.w3.org/2000/svg" xmlns:xlink="http://www.w3.org/1999/xlink" width="32" height="32" viewBox="0 0 32 32"><defs><clipPath id="8690dbfd-0e29-46a9-be03-b5117bde7df0"><path d="M23.64249,12.08032c0.007,0.16992.011,0.34033,0.011,0.50928a11.21326,11.21326,0,0,1-17.263,9.44775,7.9391,7.9391,0,0,0,5.838-1.63281,3.949,3.949,0,0,1-3.684-2.73926,3.8366,3.8366,0,0,0,.742.07324,3.94512,3.94512,0,0,0,1.039-.13916,3.94675,3.94675,0,0,1-3.163-3.8667V13.68335a3.90948,3.90948,0,0,0,1.786.49219,3.947,3.947,0,0,1-1.22-5.26416,11.19358,11.19358,0,0,0,8.127,4.12109,3.946,3.946,0,0,1,6.72-3.59717,7.87522,7.87522,0,0,0,2.503-.957,3.95841,3.95841,0,0,1-1.733,2.18213,7.93272,7.93272,0,0,0,2.265-.62207A8.03771,8.03771,0,0,1,23.64249,12.08032ZM16.0005,0.24048a15.75952,15.75952,0,1,0,15.759,15.75977A15.76068,15.76068,0,0,0,16.0005.24048Z" style="fill:none;clip-rule:evenodd"/></clipPath><clipPath id="3e98fedb-1a05-4910-88b1-1659fd62af4e"><rect x="-114.7595" y="-328.75952" width="1024" height="5192" style="fill:none"/></clipPath></defs><title>tw</title><g style="clip-path:url(#8690dbfd-0e29-46a9-be03-b5117bde7df0)"><g style="clip-path:url(#3e98fedb-1a05-4910-88b1-1659fd62af4e)"><rect x="-4.7595" y="-4.75952" width="41.519" height="41.51904" style="fill:#303030"/></g></g></svg>