<svg id="72517c63-3713-47ca-b21d-75e6ce878ea2" data-name="Layer 1" xmlns="http://www.w3.org/2000/svg" xmlns:xlink="http://www.w3.org/1999/xlink" width="32" height="32" viewBox="0 0 32 32"><defs><clipPath id="4103734c-e9c2-45b8-b3e6-617dc8a31fca"><path d="M14.142,18.5061l5.014-2.50635L14.142,13.4939V18.5061ZM25.358,19.342a3.3423,3.3423,0,0,1-3.342,3.3418H9.984A3.34273,3.34273,0,0,1,6.643,19.342V12.658a3.34179,3.34179,0,0,1,3.341-3.3418H22.016a3.34137,3.34137,0,0,1,3.342,3.3418V19.342ZM16,0.51587A15.48413,15.48413,0,1,0,31.484,15.99976,15.48541,15.48541,0,0,0,16,.51587Z" style="fill:none;clip-rule:evenodd"/></clipPath><clipPath id="14c3effe-074e-42bf-bf3f-fa684d8e8c9b"><rect x="-154.687" y="-329.26001" width="1024" height="5192" style="fill:none"/></clipPath></defs><title>yt</title><g style="clip-path:url(#4103734c-e9c2-45b8-b3e6-617dc8a31fca)"><g style="clip-path:url(#14c3effe-074e-42bf-bf3f-fa684d8e8c9b)"><rect x="-4.4836" y="-4.48413" width="40.96799" height="40.96826" style="fill:#303030"/></g></g></svg>