<svg id="541b3056-4144-4b0c-acb8-1a0d8a129aa2" data-name="Layer 1" xmlns="http://www.w3.org/2000/svg" xmlns:xlink="http://www.w3.org/1999/xlink" width="32" height="32" viewBox="0 0 32 32"><defs><clipPath id="facc236a-c808-4981-aa91-5804a6f7f900"><path d="M31,16A15,15,0,1,1,16,1,15.00012,15.00012,0,0,1,31,16" style="fill:none;clip-rule:evenodd"/></clipPath><clipPath id="3cfaa3c9-720d-4aa9-bca4-044566ba1e65"><path d="M8.32,10.24v1.92L16,16.96,23.68,12.16V10.24L16,15.04ZM25.6,21.76a1.91937,1.91937,0,0,1-1.92,1.92H8.32A1.91937,1.91937,0,0,1,6.4,21.76L6.40961,10.24a1.91119,1.91119,0,0,1,1.9104-1.92H23.68a1.91937,1.91937,0,0,1,1.92,1.92V21.76ZM16,0A16,16,0,1,0,32,16,16.00067,16.00067,0,0,0,16,0Z" style="fill:none;clip-rule:evenodd"/></clipPath></defs><title>dfgfgfgvbvv</title><g style="clip-path:url(#facc236a-c808-4981-aa91-5804a6f7f900)"><rect x="-4" y="-4" width="40" height="40" style="fill:#fffffe"/></g><g style="clip-path:url(#3cfaa3c9-720d-4aa9-bca4-044566ba1e65)"><rect x="-5" y="-5" width="42" height="42" style="fill:#8a8b8a"/></g></svg>