<svg id="f8247767-a166-4b66-84f1-5a9a47387c8d" data-name="Layer 1" xmlns="http://www.w3.org/2000/svg" xmlns:xlink="http://www.w3.org/1999/xlink" width="32" height="32" viewBox="0 0 32 32"><defs><clipPath id="59eda123-2f96-45c7-af0c-6ccdd412e8d9"><path d="M31,16A15,15,0,1,1,16,1,15.00012,15.00012,0,0,1,31,16" style="fill:none;clip-rule:evenodd"/></clipPath><clipPath id="2abeda79-a722-4e1f-abca-8eb5776a07aa"><path d="M20.2352,15.934H17.4648v9.881H13.3576V15.934h-1.952v-3.489h1.952V10.18506A3.85067,3.85067,0,0,1,17.5024,6.041L20.5432,6.052V9.43994h-2.208a0.836,0.836,0,0,0-.8704.95007v2.05493h3.1304ZM16,0A16,16,0,1,0,32,16.001,16.00159,16.00159,0,0,0,16,0Z" style="fill:none;clip-rule:evenodd"/></clipPath></defs><title>wetryrty</title><g style="clip-path:url(#59eda123-2f96-45c7-af0c-6ccdd412e8d9)"><rect x="-4" y="-4" width="40" height="40" style="fill:#fffffe"/></g><g style="clip-path:url(#2abeda79-a722-4e1f-abca-8eb5776a07aa)"><rect x="-5" y="-5" width="42" height="42" style="fill:#273678"/></g></svg>