<svg id="ba267412-586f-4a35-9274-a282fa8bab91" data-name="Layer 1" xmlns="http://www.w3.org/2000/svg" xmlns:xlink="http://www.w3.org/1999/xlink" width="32" height="32" viewBox="0 0 32 32"><defs><clipPath id="c20919dd-4ad8-45b6-aec7-4d504f19d2b7"><path d="M16,0A16,16,0,1,0,32,16.001,16.00159,16.00159,0,0,0,16,0" style="fill:none;clip-rule:evenodd"/></clipPath><clipPath id="3f0446ba-1507-4fdf-aaf9-ad76baab0177"><path d="M18.47839,15.342H12.2439V17.444H16.215A4.16321,4.16321,0,1,1,14.818,12.993c0.4745-.474.9756-0.9751,1.4868-1.48706a6.24457,6.24457,0,1,0,2.1736,4.921V15.342Zm7.18521,0.007H23.8779V13.563H22.0874v1.786H20.3017v1.78894H22.0874v1.786h1.7905v-1.786H25.6636V15.349Z" style="fill:none;clip-rule:evenodd"/></clipPath></defs><title>Untitled-5</title><g style="clip-path:url(#c20919dd-4ad8-45b6-aec7-4d504f19d2b7)"><rect x="-5" y="-5" width="42" height="42" style="fill:#b5392e"/></g><g style="clip-path:url(#3f0446ba-1507-4fdf-aaf9-ad76baab0177)"><rect x="1" y="5" width="29.6636" height="22.48804" style="fill:#fffffe"/></g></svg>