<svg id="6b69dfe2-bff9-4d2d-bf6c-d79e43f6bbe3" data-name="Layer 1" xmlns="http://www.w3.org/2000/svg" xmlns:xlink="http://www.w3.org/1999/xlink" width="32" height="32" viewBox="0 0 32 32"><defs><clipPath id="bca33198-b268-4d7a-9082-4fb90c2f4445"><path d="M31,16A15,15,0,1,1,16,1,15.00012,15.00012,0,0,1,31,16" style="fill:none;clip-rule:evenodd"/></clipPath><clipPath id="ed408a61-1e2b-4d1f-82d2-85d7500b752e"><path d="M23.75841,12.021c0.008,0.173.012,0.345,0.012,0.51794A11.38372,11.38372,0,0,1,6.2432,22.13a8.14664,8.14664,0,0,0,.9552.058,8.03369,8.03369,0,0,0,4.972-1.715,4.01009,4.01009,0,0,1-3.74-2.781,3.97671,3.97671,0,0,0,1.808-.068,4.00562,4.00562,0,0,1-3.2112-3.926v-0.05a3.96655,3.96655,0,0,0,1.81361.5011A4.00737,4.00737,0,0,1,7.6024,8.804a11.36559,11.36559,0,0,0,8.25121,4.18311A4.00593,4.00593,0,0,1,22.6752,9.335a7.99681,7.99681,0,0,0,2.5424-.97095,4.01313,4.01313,0,0,1-1.7608,2.215,8.01911,8.01911,0,0,0,2.3-.631A8.11538,8.11538,0,0,1,23.75841,12.021ZM16.00079,0A16,16,0,1,0,32,16.001,16.00238,16.00238,0,0,0,16.00079,0Z" style="fill:none;clip-rule:evenodd"/></clipPath></defs><title>dfgdfg</title><g style="clip-path:url(#bca33198-b268-4d7a-9082-4fb90c2f4445)"><rect x="-4" y="-4" width="40" height="40" style="fill:#fffffe"/></g><g style="clip-path:url(#ed408a61-1e2b-4d1f-82d2-85d7500b752e)"><rect x="-5" y="-5" width="42" height="42" style="fill:#2593c5"/></g></svg>