<svg id="5c75320f-7aa8-4530-9b45-b7e8bc652286" data-name="Layer 1" xmlns="http://www.w3.org/2000/svg" xmlns:xlink="http://www.w3.org/1999/xlink" width="32" height="32" viewBox="0 0 32 32"><defs><clipPath id="57471443-48b7-4838-a18e-eee244d21af7"><path d="M16,0A16,16,0,1,0,32,16.001,16.00169,16.00169,0,0,0,16,0" style="fill:none;clip-rule:evenodd"/></clipPath><clipPath id="0dbab0bf-a446-4c54-9591-26ece1b12e0d"><path d="M12.19749,11.26294a1.304,1.304,0,0,1,.4557-0.18994h0.874a0.49767,0.49767,0,0,1,.34239.285c0.1069,0.244.8439,1.975,0.8985,2.109a0.72922,0.72922,0,0,1-.031.76c-0.2299.2959-.7093,0.8479-0.7093,0.8479a0.34179,0.34179,0,0,0-.0253.443,8.83245,8.83245,0,0,0,1.501,1.8501,7.1835,7.1835,0,0,0,2.14592,1.33,0.5392,0.5392,0,0,0,.74109-0.27905c0.1777-.22791.728-0.92493,0.728-0.92493a0.43706,0.43706,0,0,1,.56421-0.10706c0.37338,0.171,2.1907,1.051,2.1907,1.051a0.2946,0.2946,0,0,1,.234.285,1.98558,1.98558,0,0,1-.494,1.697,3.31671,3.31671,0,0,1-2.72229.855A10.67787,10.67787,0,0,1,14.605,19.182a14.08259,14.08259,0,0,1-3.063-3.77295,3.65452,3.65452,0,0,1-.4207-1.94006A3.06881,3.06881,0,0,1,12.19749,11.26294ZM16.42151,25.41a10.18045,10.18045,0,0,1-5.1347-1.542L7.7834,25.012,8.92,21.62a10.59513,10.59513,0,0,1-1.8157-5.528A9.31725,9.31725,0,1,1,16.42151,25.41Zm0-20.41A11.09191,11.09191,0,0,0,5.32941,16.092,12.79719,12.79719,0,0,0,6.9388,21.851L5,27.757l6.07719-1.942a11.24542,11.24542,0,0,0,5.34431,1.37012A11.09253,11.09253,0,0,0,16.42151,5Z" style="fill:none;clip-rule:evenodd"/></clipPath></defs><title>UIPIOP</title><g style="clip-path:url(#57471443-48b7-4838-a18e-eee244d21af7)"><rect x="-5" y="-5" width="42" height="42" style="fill:#108c44"/></g><g style="clip-path:url(#0dbab0bf-a446-4c54-9591-26ece1b12e0d)"><rect width="32.5137" height="32.75696" style="fill:#fffffe"/></g></svg>