<svg id="fd3dd79d-6d8d-4ad1-bba7-418200679d02" data-name="Layer 1" xmlns="http://www.w3.org/2000/svg" xmlns:xlink="http://www.w3.org/1999/xlink" width="230" height="105" viewBox="0 0 230 105"><defs><clipPath id="7c7c269e-7f93-4494-88b6-537e70ba913d"><path d="M168.1785,42.80591h18.076a0.553,0.553,0,0,1,.642.64307v3.84521a0.551,0.551,0,0,1-.642.64063h-22.82a0.54961,0.54961,0,0,1-.64-0.64062V3.70825a0.55109,0.55109,0,0,1,.64-0.64307h22.372a0.5511,0.5511,0,0,1,.64.64307V7.551a0.55144,0.55144,0,0,1-.64.64307h-17.628V21.783h15.641a0.55047,0.55047,0,0,1,.641.64014v3.84814a0.549,0.549,0,0,1-.641.6377h-15.641v15.897ZM141.5735,2.425c8.59,0,12.949,5.70313,12.949,12.501a0.54949,0.54949,0,0,1-.642.63818h-4.102a0.54849,0.54849,0,0,1-.64-0.63818c0-3.97705-2.566-7.375-7.565-7.375-4.423,0-6.988,2.437-6.988,6.53809,0,4.875,3.655,6.54,9.359,8.46289,7.436,2.5,11.732,5.38428,11.732,12.24316,0,8.334-5.771,13.77979-13.463,13.77979-8.203,0-13.908-5.4458-13.908-13.90771a0.55046,0.55046,0,0,1,.64-0.64111h4.103a0.55078,0.55078,0,0,1,.641.64111c0,4.936,2.948,8.78174,8.524,8.78174,5.384,0,8.078-3.20605,8.078-8.20605,0-4.35693-3.076-6.34473-8.782-8.07568-7.564-2.30908-12.306-6.02441-12.306-12.69141C129.20351,6.592,134.9715,2.425,141.5735,2.425Zm-42.181,1.2832a0.5511,0.5511,0,0,1,.64-0.64307h20.385a0.55109,0.55109,0,0,1,.64.64307V7.551a0.55143,0.55143,0,0,1-.64.64307h-7.5V42.80591h8.14a0.55228,0.55228,0,0,1,.641.64307v3.84521a0.55029,0.55029,0,0,1-.641.64063H99.3925a0.5503,0.5503,0,0,1-.641-0.64062V43.449a0.55229,0.55229,0,0,1,.641-0.64307h8.141V8.19409h-7.501a0.55144,0.55144,0,0,1-.64-0.64307V3.70825ZM85.3515,47.93481a0.94327,0.94327,0,0,1-1.025-.51367l-13.59-33.458V47.29419a0.551,0.551,0,0,1-.642.64063h-4.101a0.54994,0.54994,0,0,1-.641-0.64062V3.70825a0.55142,0.55142,0,0,1,.641-0.64307h4.999a0.94713,0.94713,0,0,1,1.025.51367l13.589,33.459V3.70825a0.55176,0.55176,0,0,1,.641-0.64307h4.103a0.5511,0.5511,0,0,1,.64.64307V47.29419a0.54962,0.54962,0,0,1-.64.64063h-4.999Zm-45.387-5.12891h18.075a0.55362,0.55362,0,0,1,.643.64307v3.84521a0.55163,0.55163,0,0,1-.643.64063H35.2225a0.55027,0.55027,0,0,1-.642-0.64062V3.70825a0.55174,0.55174,0,0,1,.642-0.64307h22.369a0.55311,0.55311,0,0,1,.643.64307V7.551a0.55345,0.55345,0,0,1-.643.64307H39.9645V21.783h15.641a0.5498,0.5498,0,0,1,.64.64014v3.84814a0.54833,0.54833,0,0,1-.64.6377H39.9645v15.897Zm-29.809,0c8.268,0,11.985-5.57568,11.985-17.30566S18.4235,8.19409,10.1555,8.19409h-2.95V42.80591h2.95ZM1.8215,3.70825a0.55174,0.55174,0,0,1,.642-0.64307h7.692c11.024,0,17.627,7.627,17.627,22.43506,0,14.80762-6.603,22.43457-17.627,22.43457H2.4635a0.55027,0.55027,0,0,1-.642-0.64062V3.70825Z" style="fill:none;clip-rule:evenodd"/></clipPath><clipPath id="1469cdc0-8583-4126-a58b-42299563647e"><rect x="-72.1785" y="-193.57495" width="1024" height="5192" style="fill:none"/></clipPath><clipPath id="2b1839a3-1497-40db-829b-b9030807f0a3"><path d="M206.1575,75.54419h7.912c5.407,0,7.187-2.63623,7.187-6.91992,0-4.28613-1.78-6.92432-7.187-6.92432h-7.912V75.54419Zm-5.537-18.458a0.56708,0.56708,0,0,1,.66-0.66113h12.13c8.702,0,13.384,4.812,13.384,12.19922a11.6996,11.6996,0,0,1-8.044,11.60156l9.361,21.69043a0.489,0.489,0,0,1,.067.2627,0.42868,0.42868,0,0,1-.528.396h-4.747a0.96536,0.96536,0,0,1-.923-0.65869l-9.163-21.09717h-6.66v21.09717a0.56546,0.56546,0,0,1-.658.65869h-4.219a0.56611,0.56611,0,0,1-.66-0.65869V57.08618ZM173.71851,97.3h18.591a0.56846,0.56846,0,0,1,.66.66113v3.95508a0.56681,0.56681,0,0,1-.66.65869h-23.471a0.56512,0.56512,0,0,1-.658-0.65869V57.08618a0.56608,0.56608,0,0,1,.658-0.66113h23.008a0.56775,0.56775,0,0,1,.661.66113v3.95264a0.56826,0.56826,0,0,1-.661.66113h-18.128V75.677h16.085a0.56712,0.56712,0,0,1,.661.65918v3.957a0.56548,0.56548,0,0,1-.661.65674h-16.085V97.3Zm-23.081-26.04,11.538,30.39111a1.00156,1.00156,0,0,1,.065.396,0.48455,0.48455,0,0,1-.526.52783h-4.549a1.21535,1.21535,0,0,1-1.186-.98877l-9.496-24.9873-5.34,6.791v18.52637a0.56512,0.56512,0,0,1-.658.65869h-4.219a0.56614,0.56614,0,0,1-.659-0.65869V57.08618a0.56711,0.56711,0,0,1,.659-0.66113h4.219a0.56608,0.56608,0,0,1,.658.66113V74.95093l13.977-17.86475a1.27705,1.27705,0,0,1,1.056-.66113h5.01a0.49724,0.49724,0,0,1,.594.39795,1.047,1.047,0,0,1-.198.52588Zm-43.383,4.28418h7.911c5.405,0,7.185-2.63623,7.185-6.91992,0-4.28613-1.78-6.92432-7.185-6.92432h-7.911V75.54419Zm-5.538-18.458a0.56642,0.56642,0,0,1,.658-0.66113h12.13c8.702,0,13.384,4.812,13.384,12.19922a11.6996,11.6996,0,0,1-8.044,11.60156l9.363,21.69043a0.49493,0.49493,0,0,1,.066.2627,0.42914,0.42914,0,0,1-.529.396h-4.744a0.96217,0.96217,0,0,1-.924-0.65869l-9.163-21.09717h-6.659v21.09717a0.56679,0.56679,0,0,1-.661.65869h-4.219a0.56546,0.56546,0,0,1-.658-0.65869V57.08618ZM74.8125,97.3h18.591a0.56913,0.56913,0,0,1,.661.66113v3.95508a0.56749,0.56749,0,0,1-.661.65869h-23.469a0.56646,0.56646,0,0,1-.66-0.65869V57.08618a0.56743,0.56743,0,0,1,.66-0.66113h23.008a0.56845,0.56845,0,0,1,.661.66113v3.95264a0.569,0.569,0,0,1-.661.66113h-18.13V75.677h16.087a0.56646,0.56646,0,0,1,.659.65918v3.957a0.56482,0.56482,0,0,1-.659.65674H74.8125V97.3ZM42.89851,84.5769h10.55l-5.275-21.03174Zm11.867,5.2749H41.5815l-3.034,12.06445a0.69567,0.69567,0,0,1-.791.65869h-4.484a0.61385,0.61385,0,0,1-.726-0.65869,0.96211,0.96211,0,0,1,.067-0.395l12.198-44.43506c0.13-.46289.197-0.66113,0.658-0.66113h5.405c0.463,0,.528.19824,0.661,0.66113l12.197,44.43506a0.98891,0.98891,0,0,1,.065.395,0.61271,0.61271,0,0,1-.725.65869h-4.482a0.69419,0.69419,0,0,1-.791-0.65869Zm-26.176,12.06445a0.56749,0.56749,0,0,1-.661.65869h-4.219a0.56647,0.56647,0,0,1-.66-0.65869V65.7229l-5.208,13.646a0.76734,0.76734,0,0,1-.856.3291h-3.562a0.7701,0.7701,0,0,1-.857-0.3291l-5.207-13.646v36.19336a0.56614,0.56614,0,0,1-.659.65869h-4.22a0.56614,0.56614,0,0,1-.659-0.65869V57.08618a0.5671,0.5671,0,0,1,.659-0.66113h5.603a0.93165,0.93165,0,0,1,1.056.52979l6.066,16.21631,6.064-16.21631a0.931,0.931,0,0,1,1.056-.52979h5.603a0.56845,0.56845,0,0,1,.661.66113v44.83008Z" style="fill:none;clip-rule:evenodd"/></clipPath></defs><title>dm_logo</title><g style="clip-path:url(#7c7c269e-7f93-4494-88b6-537e70ba913d)"><g style="clip-path:url(#1469cdc0-8583-4126-a58b-42299563647e)"><rect x="-3.1785" y="-2.57495" width="195.07498" height="56.15039" style="fill:#b0b0b0"/></g></g><g style="clip-path:url(#2b1839a3-1497-40db-829b-b9030807f0a3)"><g style="clip-path:url(#1469cdc0-8583-4126-a58b-42299563647e)"><rect x="-3.1785" y="51.42505" width="236.35699" height="56.15039" style="fill:#303030"/></g></g></svg>