<svg id="90c3b148-1c4e-46d6-a937-2c8a431fb073" data-name="Layer 1" xmlns="http://www.w3.org/2000/svg" width="170" height="32" viewBox="0 0 170 32"><title>dm_logo_2</title><path d="M1.94727,7.83862A0.20651,0.20651,0,0,1,2.1875,7.59839H5.06787c4.12793,0,6.6001,2.85645,6.6001,8.40137,0,5.54346-2.47217,8.40088-6.6001,8.40088H2.1875a0.20651,0.20651,0,0,1-.24023-0.24023V7.83862ZM5.06787,22.48071c3.09619,0,4.48828-2.08984,4.48828-6.481,0-4.39258-1.39209-6.48047-4.48828-6.48047H3.96338V22.48071H5.06787Z" style="fill:#bebebe"/><path d="M16.22754,22.48071h6.76855a0.20583,0.20583,0,0,1,.24023.24023V24.1604a0.20651,0.20651,0,0,1-.24023.24023H14.45117a0.20618,0.20618,0,0,1-.23975-0.24023V7.83862a0.20618,0.20618,0,0,1,.23975-0.24023h8.377a0.20651,0.20651,0,0,1,.24023.24023V9.27905a0.20651,0.20651,0,0,1-.24023.24023H16.22754v5.08789H22.084a0.20651,0.20651,0,0,1,.24023.24023v1.44043a0.20585,0.20585,0,0,1-.24023.23926H16.22754v5.95361Z" style="fill:#bebebe"/><path d="M33.22021,24.40063a0.35531,0.35531,0,0,1-.38428-0.19336L27.74756,11.67944v12.481a0.20651,0.20651,0,0,1-.24023.24023H25.97119a0.20618,0.20618,0,0,1-.23975-0.24023V7.83862a0.20618,0.20618,0,0,1,.23975-0.24023h1.87256a0.354,0.354,0,0,1,.38379.19238l5.08838,12.52979V7.83862a0.20651,0.20651,0,0,1,.24023-0.24023h1.53613a0.20618,0.20618,0,0,1,.23975.24023V24.1604a0.20618,0.20618,0,0,1-.23975.24023H33.22021Z" style="fill:#bebebe"/><path d="M38.47559,7.83862a0.20618,0.20618,0,0,1,.23975-0.24023h7.63281a0.20618,0.20618,0,0,1,.23975.24023V9.27905a0.20618,0.20618,0,0,1-.23975.24023H43.54V22.48071h3.04785a0.20566,0.20566,0,0,1,.24023.24023V24.1604a0.20634,0.20634,0,0,1-.24023.24023h-8.1123a0.20651,0.20651,0,0,1-.24023-0.24023V22.72095a0.20583,0.20583,0,0,1,.24023-0.24023h3.04785V9.51929H38.71533a0.20618,0.20618,0,0,1-.23975-0.24023V7.83862Z" style="fill:#bebebe"/><path d="M54.26758,7.35913a4.47731,4.47731,0,0,1,4.84863,4.67969,0.20651,0.20651,0,0,1-.24023.24023H57.33984a0.20618,0.20618,0,0,1-.23975-0.24023,2.6372,2.6372,0,0,0-2.83252-2.75977,2.32058,2.32058,0,0,0-2.61621,2.44824c0,1.82422,1.36816,2.44824,3.50439,3.168,2.78418,0.93652,4.39258,2.0166,4.39258,4.5835a5.12493,5.12493,0,1,1-10.249-.04687,0.20634,0.20634,0,0,1,.24023-0.24023h1.53613a0.20618,0.20618,0,0,1,.23975.24023,3.03572,3.03572,0,0,0,3.19238,3.28906,2.76857,2.76857,0,0,0,3.02441-3.07227c0-1.6333-1.15234-2.37744-3.28857-3.0249-2.832-.86426-4.6084-2.25684-4.6084-4.75293A4.34718,4.34718,0,0,1,54.26758,7.35913Z" style="fill:#bebebe"/><path d="M64.22754,22.48071h6.76855a0.20583,0.20583,0,0,1,.24023.24023V24.1604a0.20651,0.20651,0,0,1-.24023.24023H62.45117a0.20618,0.20618,0,0,1-.23975-0.24023V7.83862a0.20618,0.20618,0,0,1,.23975-0.24023h8.377a0.20651,0.20651,0,0,1,.24023.24023V9.27905a0.20651,0.20651,0,0,1-.24023.24023H64.22754v5.08789H70.084a0.20651,0.20651,0,0,1,.24023.24023v1.44043a0.20585,0.20585,0,0,1-.24023.23926H64.22754v5.95361Z" style="fill:#bebebe"/><path d="M95.4043,24.1604a0.20651,0.20651,0,0,1-.24023.24023H93.62793a0.20585,0.20585,0,0,1-.23926-0.24023V10.98315l-1.89648,4.96777a0.28036,0.28036,0,0,1-.3125.12012h-1.2959a0.2783,0.2783,0,0,1-.31152-0.12012l-1.89648-4.96777V24.1604a0.20651,0.20651,0,0,1-.24023.24023H85.89941a0.20651,0.20651,0,0,1-.24023-0.24023V7.83862a0.20651,0.20651,0,0,1,.24023-0.24023h2.04a0.34055,0.34055,0,0,1,.38477.19238l2.207,5.9043,2.209-5.9043A0.33869,0.33869,0,0,1,93.124,7.59839h2.04a0.20651,0.20651,0,0,1,.24023.24023V24.1604Z" style="fill:#3f3f3f"/><path d="M104.93164,19.76782h-4.80078L99.02734,24.1604a0.25322,0.25322,0,0,1-.28809.24023H97.10742a0.22317,0.22317,0,0,1-.26367-0.24023,0.36545,0.36545,0,0,1,.02344-0.14453l4.44043-16.17725c0.04785-.168.07227-0.24023,0.24023-0.24023h1.96777c0.168,0,.19238.07227,0.24023,0.24023l4.44043,16.17725a0.35215,0.35215,0,0,1,.02441.14453,0.2239,0.2239,0,0,1-.26465.24023h-1.63184a0.25322,0.25322,0,0,1-.28809-0.24023Zm-4.32031-1.92041h3.84082l-1.9209-7.65625Z" style="fill:#3f3f3f"/><path d="M112.22754,22.48071h6.76855a0.20583,0.20583,0,0,1,.24023.24023V24.1604a0.20651,0.20651,0,0,1-.24023.24023h-8.54492a0.20651,0.20651,0,0,1-.24023-0.24023V7.83862a0.20651,0.20651,0,0,1,.24023-0.24023h8.377a0.20651,0.20651,0,0,1,.24023.24023V9.27905a0.20651,0.20651,0,0,1-.24023.24023h-6.60059v5.08789H118.084a0.20651,0.20651,0,0,1,.24023.24023v1.44043a0.20585,0.20585,0,0,1-.24023.23926h-5.85645v5.95361Z" style="fill:#3f3f3f"/><path d="M122.01953,7.83862a0.20651,0.20651,0,0,1,.24023-0.24023h4.416c3.168,0,4.873,1.75293,4.873,4.44043a4.25959,4.25959,0,0,1-2.92871,4.22461l3.4082,7.897a0.177,0.177,0,0,1,.02441.0957,0.15649,0.15649,0,0,1-.19238.14453h-1.72852a0.35129,0.35129,0,0,1-.33594-0.24023L126.46,16.47925h-2.4248V24.1604a0.20651,0.20651,0,0,1-.24023.24023h-1.53516a0.20651,0.20651,0,0,1-.24023-0.24023V7.83862Zm2.01563,6.7207H126.916c1.96777,0,2.61621-.96,2.61621-2.52051,0-1.55957-.64844-2.51953-2.61621-2.51953h-2.88086v5.04Z" style="fill:#3f3f3f"/><path d="M139.82813,12.99878l4.2002,11.06592a0.34847,0.34847,0,0,1,.02441.14258,0.17738,0.17738,0,0,1-.19238.19336H142.2041a0.4439,0.4439,0,0,1-.43262-0.36133l-3.45508-9.09619-1.94531,2.47266V24.1604a0.20617,0.20617,0,0,1-.24023.24023H134.5957a0.20651,0.20651,0,0,1-.24023-0.24023V7.83862a0.20651,0.20651,0,0,1,.24023-0.24023h1.53516a0.20617,0.20617,0,0,1,.24023.24023v6.50488L141.46,7.83862a0.46412,0.46412,0,0,1,.38379-0.24023H143.668a0.18152,0.18152,0,0,1,.2168.14453,0.38176,0.38176,0,0,1-.07227.19141Z" style="fill:#3f3f3f"/><path d="M148.22754,22.48071h6.76855a0.20583,0.20583,0,0,1,.24023.24023V24.1604a0.20651,0.20651,0,0,1-.24023.24023h-8.54492a0.20651,0.20651,0,0,1-.24023-0.24023V7.83862a0.20651,0.20651,0,0,1,.24023-0.24023h8.377a0.20651,0.20651,0,0,1,.24023.24023V9.27905a0.20651,0.20651,0,0,1-.24023.24023h-6.60059v5.08789H154.084a0.20651,0.20651,0,0,1,.24023.24023v1.44043a0.20585,0.20585,0,0,1-.24023.23926h-5.85645v5.95361Z" style="fill:#3f3f3f"/><path d="M158.01953,7.83862a0.20651,0.20651,0,0,1,.24023-0.24023h4.416c3.168,0,4.873,1.75293,4.873,4.44043a4.25959,4.25959,0,0,1-2.92871,4.22461l3.4082,7.897a0.177,0.177,0,0,1,.02441.0957,0.15649,0.15649,0,0,1-.19238.14453h-1.72852a0.35129,0.35129,0,0,1-.33594-0.24023L162.46,16.47925h-2.4248V24.1604a0.20651,0.20651,0,0,1-.24023.24023h-1.53516a0.20651,0.20651,0,0,1-.24023-0.24023V7.83862Zm2.01563,6.7207H162.916c1.96777,0,2.61621-.96,2.61621-2.52051,0-1.55957-.64844-2.51953-2.61621-2.51953h-2.88086v5.04Z" style="fill:#3f3f3f"/></svg>