<svg id="c03d03ff-bebd-4f57-92fa-05bd364e34de" data-name="Layer 1" xmlns="http://www.w3.org/2000/svg" xmlns:xlink="http://www.w3.org/1999/xlink" width="128" height="128" viewBox="0 0 128 128"><defs><clipPath id="d1618762-e50e-496b-986c-215684c1c17d"><rect width="128" height="128" style="fill:none"/></clipPath><clipPath id="99e866a4-e358-4465-a799-121f7e3b7835"><rect x="8" y="9" width="111" height="110" style="fill:none"/></clipPath><clipPath id="ed2462de-b325-4876-9e9c-d8c9f1ed376e"><ellipse cx="63.504" cy="64" rx="54.57401" ry="55" style="fill:none"/></clipPath><clipPath id="79c80d68-3b5f-4c4e-8fc7-916b58da285b"><path d="M87.473,64l-40,23.814V40.186ZM63.504,112A48.00145,48.00145,0,1,0,15.876,64,47.81519,47.81519,0,0,0,63.504,112Zm0,16c35.072,0,63.504-28.65381,63.504-64S98.576,0,63.504,0,0,28.65381,0,64,28.432,128,63.504,128Z" style="fill:none;clip-rule:evenodd"/></clipPath></defs><title>Untitled-3</title><g style="opacity:0.7537000179290771;isolation:isolate"><g style="clip-path:url(#d1618762-e50e-496b-986c-215684c1c17d)"><g style="clip-path:url(#d1618762-e50e-496b-986c-215684c1c17d)"><g style="isolation:isolate"><g style="clip-path:url(#d1618762-e50e-496b-986c-215684c1c17d)"><g style="clip-path:url(#d1618762-e50e-496b-986c-215684c1c17d)"><g style="opacity:0.5;isolation:isolate"><g style="clip-path:url(#99e866a4-e358-4465-a799-121f7e3b7835)"><g style="clip-path:url(#ed2462de-b325-4876-9e9c-d8c9f1ed376e)"><g style="clip-path:url(#99e866a4-e358-4465-a799-121f7e3b7835)"><rect x="3.93021" y="4" width="119.147" height="120"/></g></g></g></g></g><g style="clip-path:url(#79c80d68-3b5f-4c4e-8fc7-916b58da285b)"><g style="clip-path:url(#d1618762-e50e-496b-986c-215684c1c17d)"><rect x="-5" y="-5" width="137.008" height="138" style="fill:#fff"/></g></g></g></g></g></g></g></svg>